<svg width="33" height="6" viewBox="0 0 33 6" fill="none" xmlns="http://www.w3.org/2000/svg">
<path fill-rule="evenodd" clip-rule="evenodd" d="M0 0L3 2L4.5 3L3 4L0 6V4L1.5 3L0 2V0Z" fill="#4F4F4F"/>
<path fill-rule="evenodd" clip-rule="evenodd" d="M8 0L11 2L12.5 3L11 4L8 6V4L9.5 3L8 2V0Z" fill="#4F4F4F"/>
<path fill-rule="evenodd" clip-rule="evenodd" d="M16 0L19 2L20.5 3L19 4L16 6V4L17.5 3L16 2V0Z" fill="#4F4F4F"/>
<path fill-rule="evenodd" clip-rule="evenodd" d="M24 0L27 2L28.5 3L27 4L24 6V4L25.5 3L24 2V0Z" fill="#4F4F4F"/>
<path fill-rule="evenodd" clip-rule="evenodd" d="M4 0L7 2L8.5 3L7 4L4 6V4L5.5 3L4 2V0Z" fill="#4F4F4F"/>
<path fill-rule="evenodd" clip-rule="evenodd" d="M4 0L7 2L8.5 3L7 4L4 6V4L5.5 3L4 2V0Z" fill="#4F4F4F"/>
<path fill-rule="evenodd" clip-rule="evenodd" d="M12 0L15 2L16.5 3L15 4L12 6V4L13.5 3L12 2V0Z" fill="#4F4F4F"/>
<path fill-rule="evenodd" clip-rule="evenodd" d="M20 0L23 2L24.5 3L23 4L20 6V4L21.5 3L20 2V0Z" fill="#4F4F4F"/>
<path fill-rule="evenodd" clip-rule="evenodd" d="M28 0L31 2L32.5 3L31 4L28 6V4L29.5 3L28 2V0Z" fill="#4F4F4F"/>
</svg>
