<svg width="18" height="18" viewBox="0 0 18 18" fill="none" xmlns="http://www.w3.org/2000/svg">
<path d="M0.818359 0.818176H4.90927" stroke="#3A4A55" stroke-linecap="round"/>
<path d="M9.81836 10.6364H13.9093" stroke="#3A4A55" stroke-linecap="round"/>
<path d="M4.0918 7.36359H8.18271" stroke="#3A4A55" stroke-linecap="round"/>
<path d="M13.0918 17.1818H17.1827" stroke="#3A4A55" stroke-linecap="round"/>
<path d="M3.27344 13.9091H4.9098" stroke="#3A4A55" stroke-linecap="round"/>
<path d="M13.0918 4.09088H14.7282" stroke="#3A4A55" stroke-linecap="round"/>
<path d="M7.12916 0.818176H7.98111C8.09156 0.818176 8.18111 0.907719 8.18111 1.01818V3.8909C8.18111 4.00136 8.09156 4.0909 7.98111 4.0909H5.72656" stroke="#3A4A55" stroke-linecap="round"/>
<path d="M16.1292 10.6364H16.9811C17.0916 10.6364 17.1811 10.726 17.1811 10.8364V13.7091C17.1811 13.8196 17.0916 13.9091 16.9811 13.9091H14.7266" stroke="#3A4A55" stroke-linecap="round"/>
<path d="M1.87084 7.36359L1.01889 7.36359C0.908435 7.36359 0.818892 7.27404 0.818892 7.16359L0.818893 4.29086C0.818893 4.1804 0.908436 4.09086 1.01889 4.09086L3.27344 4.09086" stroke="#3A4A55" stroke-linecap="round"/>
<path d="M10.8708 17.1818L10.0189 17.1818C9.90844 17.1818 9.81889 17.0923 9.81889 16.9818L9.81889 14.1091C9.81889 13.9986 9.90844 13.9091 10.0189 13.9091L12.2734 13.9091" stroke="#3A4A55" stroke-linecap="round"/>
<rect x="0.5" y="10.3182" width="7.18182" height="7.18182" rx="0.5" stroke="#3A4A55"/>
<rect x="10.3184" y="0.5" width="7.18182" height="7.18182" rx="0.5" stroke="#3A4A55"/>
</svg>
