<svg width="21" height="20" viewBox="0 0 21 20" fill="none" xmlns="http://www.w3.org/2000/svg">
<path d="M4.48458 6.06197C5.34201 4.64929 6.6912 3.56583 8.29911 2.99874C9.90701 2.43165 11.6726 2.41654 13.291 2.95602C14.9094 3.4955 16.2788 4.55569 17.1629 5.95346C18.0469 7.35123 18.3899 8.9988 18.1327 10.6116C17.8756 12.2243 17.0343 13.701 15.7543 14.7865C14.4743 15.8721 12.8359 16.4983 11.1221 16.5569C9.40835 16.6156 7.72686 16.1031 6.36808 15.108C5.00931 14.1128 4.05858 12.6975 3.68013 11.1065" stroke="#881B9A" stroke-linecap="round"/>
<path d="M3.96289 3.5V6.5H7.11674" stroke="#881B9A" stroke-linecap="round"/>
<path d="M10.793 6V9.85751L13.9489 12" stroke="#881B9A" stroke-linecap="round"/>
</svg>
