<svg width="16" height="15" viewBox="0 0 16 15" fill="none" xmlns="http://www.w3.org/2000/svg">
<path d="M15.3454 7.5C15.3454 11.3427 12.0631 14.5 7.96079 14.5C3.85852 14.5 0.576172 11.3427 0.576172 7.5C0.576172 3.65728 3.85852 0.5 7.96079 0.5C12.0631 0.5 15.3454 3.65728 15.3454 7.5Z" stroke="#7900C2"/>
<path d="M7.90691 11.065C7.34358 11.065 6.81058 10.987 6.30791 10.831C5.80524 10.6663 5.41091 10.4627 5.12491 10.22L5.54091 9.492C5.81824 9.7 6.17358 9.882 6.60691 10.038C7.04024 10.1853 7.49524 10.259 7.97191 10.259C8.62191 10.259 9.08991 10.1593 9.37591 9.96C9.66191 9.752 9.80491 9.479 9.80491 9.141C9.80491 8.88967 9.72258 8.69467 9.55791 8.556C9.40191 8.40867 9.19391 8.30033 8.93391 8.231C8.67391 8.153 8.38358 8.088 8.06291 8.036C7.74224 7.984 7.42158 7.92333 7.10091 7.854C6.78891 7.78467 6.50291 7.685 6.24291 7.555C5.98291 7.41633 5.77058 7.23 5.60591 6.996C5.44991 6.762 5.37191 6.45 5.37191 6.06C5.37191 5.68733 5.47591 5.35367 5.68391 5.059C5.89191 4.76433 6.19524 4.53467 6.59391 4.37C7.00124 4.19667 7.49524 4.11 8.07591 4.11C8.51791 4.11 8.95991 4.17067 9.40191 4.292C9.84391 4.40467 10.2079 4.55633 10.4939 4.747L10.0909 5.488C9.78758 5.28 9.46258 5.13267 9.11591 5.046C8.76924 4.95067 8.42258 4.903 8.07591 4.903C7.46058 4.903 7.00558 5.01133 6.71091 5.228C6.42491 5.436 6.28191 5.70467 6.28191 6.034C6.28191 6.294 6.35991 6.49767 6.51591 6.645C6.68058 6.79233 6.89291 6.90933 7.15291 6.996C7.42158 7.074 7.71191 7.139 8.02391 7.191C8.34458 7.243 8.66091 7.308 8.97291 7.386C9.29358 7.45533 9.58391 7.555 9.84391 7.685C10.1126 7.80633 10.3249 7.984 10.4809 8.218C10.6456 8.44333 10.7279 8.74233 10.7279 9.115C10.7279 9.51367 10.6152 9.86033 10.3899 10.155C10.1732 10.441 9.85258 10.6663 9.42791 10.831C9.01191 10.987 8.50491 11.065 7.90691 11.065Z" fill="#7900C2"/>
<path d="M8.48633 3L8.48633 12" stroke="#7900C2" stroke-linecap="round"/>
</svg>
