<svg width="22" height="16" viewBox="0 0 22 16" fill="none" xmlns="http://www.w3.org/2000/svg">
<rect x="1.24414" y="0.5" width="20.0256" height="15" rx="2.5" stroke="#B88400"/>
<path d="M14.6555 6.87995L15.7985 8L14.6555 9.12005L14.5087 9.26387L14.5055 9.46933L14.4809 11.0425L12.8022 11.0662L12.6108 11.0689L12.4701 11.1988L11.2564 12.3195L10.0427 11.1988L9.90202 11.0689L9.71058 11.0662L8.03191 11.0425L8.00729 9.46933L8.00408 9.26387L7.85731 9.12005L6.71437 8L7.85731 6.87995L8.00408 6.73613L8.00729 6.53067L8.03191 4.95754L9.71058 4.93377L9.90202 4.93106L10.0427 4.80118L11.2564 3.68053L12.4701 4.80118L12.6108 4.93106L12.8022 4.93377L14.4809 4.95754L14.5055 6.53067L14.5087 6.73613L14.6555 6.87995Z" stroke="#B88400"/>
</svg>
