<svg width="22" height="18" viewBox="0 0 22 18" fill="none" xmlns="http://www.w3.org/2000/svg">
<path d="M11 13.5V17M11 17L12.5 16M11 17L9.5 16" stroke="#B88400" stroke-linecap="round"/>
<path d="M14.8637 9.59413C14.6358 8.84992 14.1336 8.1923 13.435 7.72326C12.7365 7.25423 11.8805 7 11 7C10.1195 7 9.26353 7.25423 8.56496 7.72326C7.86638 8.19229 7.3642 8.84992 7.1363 9.59413" stroke="#B88400" stroke-linecap="round"/>
<path d="M20.8637 12.5941C20.6358 11.8499 20.1336 11.1923 19.435 10.7233C18.7365 10.2542 17.8805 10 17 10C16.1195 10 15.2635 10.2542 14.565 10.7233C13.8664 11.1923 13.3642 11.8499 13.1363 12.5941" stroke="#B88400" stroke-linecap="round"/>
<path d="M8.8637 12.5941C8.6358 11.8499 8.13362 11.1923 7.43505 10.7233C6.73647 10.2542 5.88054 10 5 10C4.11946 10 3.26353 10.2542 2.56496 10.7233C1.86638 11.1923 1.3642 11.8499 1.1363 12.5941" stroke="#B88400" stroke-linecap="round"/>
<circle cx="11" cy="3" r="2" stroke="#B88400" stroke-linecap="round"/>
<circle cx="17" cy="6" r="2" stroke="#B88400" stroke-linecap="round"/>
<circle cx="5" cy="6" r="2" stroke="#B88400" stroke-linecap="round"/>
</svg>
