<svg width="24" height="15" viewBox="0 0 24 15" fill="none" xmlns="http://www.w3.org/2000/svg">
<circle cx="5.5" cy="12.5" r="2" stroke="#7900C2"/>
<circle cx="17.5" cy="12.5" r="2" stroke="#7900C2"/>
<path d="M7.5 12.5H13C13.5523 12.5 14 12.0523 14 11.5V2C14 1.44772 13.5523 1 13 1H2C1.44772 1 1 1.44772 1 2V8.63636" stroke="#7900C2" stroke-linecap="round"/>
<path d="M1 10L1 11.5C1 12.0523 1.44772 12.5 2 12.5L3.5 12.5" stroke="#7900C2" stroke-linecap="round"/>
<path d="M5.25 5.75L6.75 7.75L10.75 3.75" stroke="#7900C2" stroke-linecap="round"/>
<path d="M12 12.5L14.5 12.5" stroke="#7900C2" stroke-linecap="round"/>
<path d="M19.5 12.5H23V8C23 7.44772 22.5523 7 22 7H14" stroke="#7900C2" stroke-linecap="round"/>
<path d="M22 7L20.2514 2.62861C20.0996 2.24895 19.7319 2 19.323 2H14" stroke="#7900C2" stroke-linecap="round"/>
</svg>
