<svg width="20" height="20" viewBox="0 0 20 20" fill="none" xmlns="http://www.w3.org/2000/svg">
<path fill-rule="evenodd" clip-rule="evenodd" d="M17.3877 1.51411C16.964 1.58949 16.3849 1.78113 15.5409 2.06248L4.20161 5.84224C3.00984 6.23949 2.16621 6.52184 1.61486 6.79006C1.02148 7.07873 1.01367 7.23519 1.01367 7.26526C1.01367 7.29533 1.02148 7.45179 1.61486 7.74046C2.16622 8.00868 3.00985 8.29103 4.20161 8.68828L7.97388 9.94571C8.00058 9.95461 8.0271 9.96339 8.05341 9.97211C8.439 10.0999 8.78179 10.2134 9.03454 10.4662C9.28729 10.7189 9.40086 11.0617 9.52861 11.4473C9.53733 11.4736 9.54612 11.5001 9.55502 11.5268L10.8124 15.2991C11.2097 16.4909 11.492 17.3345 11.7603 17.8859C12.0489 18.4792 12.2054 18.4871 12.2355 18.4871C12.2655 18.4871 12.422 18.4792 12.7107 17.8859C12.9789 17.3345 13.2612 16.4909 13.6585 15.2991L17.4382 3.95984C17.7196 3.11581 17.9112 2.53673 17.9866 2.11299C18.0626 1.68563 17.9877 1.58854 17.9499 1.55081C17.9122 1.51308 17.8151 1.43809 17.3877 1.51411ZM17.2126 0.529569C17.7224 0.438882 18.2577 0.44442 18.657 0.843702C19.0563 1.24298 19.0618 1.77835 18.9712 2.28814C18.8814 2.7929 18.665 3.44203 18.4006 4.23518L18.3869 4.27607L14.6072 15.6153L14.5937 15.6559C14.2129 16.7983 13.9105 17.7054 13.6099 18.3233C13.3262 18.9066 12.9262 19.4871 12.2355 19.4871C11.5448 19.4871 11.1448 18.9066 10.861 18.3233C10.5604 17.7054 10.258 16.7982 9.87726 15.6559L9.86376 15.6153L8.60633 11.8431C8.43529 11.3299 8.39129 11.2371 8.32743 11.1733C8.26358 11.1094 8.1708 11.0654 7.65765 10.8944L3.88538 9.63697L3.84485 9.62346C2.70249 9.24268 1.79536 8.94032 1.1774 8.6397C0.594171 8.35597 0.0136719 7.95595 0.0136719 7.26526C0.0136719 6.57457 0.594171 6.17455 1.1774 5.89082C1.79535 5.5902 2.70248 5.28784 3.84483 4.90707L3.88538 4.89355L15.2247 1.11379L15.2655 1.10018C16.0587 0.835769 16.7078 0.619364 17.2126 0.529569Z" fill="#0083B9"/>
</svg>
