<svg width="20" height="20" viewBox="0 0 20 20" fill="none" xmlns="http://www.w3.org/2000/svg">
<path fill-rule="evenodd" clip-rule="evenodd" d="M10.0703 3.5C10.3465 3.5 10.5703 3.72386 10.5703 4V5.01752C11.0209 5.05015 11.4714 5.1283 11.922 5.25199C12.534 5.40799 13.038 5.61799 13.434 5.88199L12.876 6.90799C12.456 6.61999 12.006 6.41599 11.526 6.29599C11.2074 6.20838 10.8889 6.14985 10.5703 6.12038V9.1561L9.57031 8.1561L9.57031 6.11853C8.97494 6.16893 8.51683 6.31208 8.196 6.54799C8.14999 6.58145 8.10665 6.61604 8.06599 6.65177L7.23695 5.82273C7.46198 5.64077 7.72766 5.48652 8.034 5.35999C8.4733 5.17305 8.98541 5.05891 9.57031 5.01758V4C9.57031 3.72386 9.79417 3.5 10.0703 3.5ZM6.3424 7.75662C6.34974 8.27027 6.4576 8.68339 6.666 8.99599C6.894 9.31999 7.188 9.57799 7.548 9.76999C7.908 9.94999 8.304 10.088 8.736 10.184C8.75035 10.1871 8.76469 10.1902 8.77904 10.1933L6.3424 7.75662ZM9.57031 10.9845L9.57031 13.503C9.04449 13.4717 8.53839 13.3734 8.052 13.208C7.452 12.992 6.96 12.74 6.576 12.452L6 13.46C6.396 13.796 6.942 14.078 7.638 14.306C8.24967 14.4958 8.89377 14.6022 9.57031 14.6252L9.57031 16C9.57031 16.2761 9.79417 16.5 10.0703 16.5C10.3465 16.5 10.5703 16.2761 10.5703 16V14.6002C11.0941 14.5546 11.5566 14.4565 11.958 14.306C12.189 14.2164 12.3977 14.1139 12.5842 13.9984L11.7627 13.1769C11.4724 13.3393 11.0749 13.443 10.5703 13.4881V11.9845L9.57031 10.9845ZM13.7308 12.3166C13.7489 12.1919 13.758 12.063 13.758 11.93C13.758 11.414 13.644 11 13.416 10.688C13.2 10.364 12.906 10.118 12.534 9.94999C12.174 9.76999 11.772 9.63199 11.328 9.53599C11.1647 9.49515 11.0005 9.45689 10.8354 9.4212L13.7308 12.3166Z" fill="#0074B5"/>
<circle cx="10" cy="10" r="9.5" stroke="#0074B5"/>
<path d="M5 5L15 15" stroke="#0074B5" stroke-linecap="round"/>
</svg>
