<svg width="24" height="24" viewBox="0 0 24 24" fill="none" xmlns="http://www.w3.org/2000/svg">
<circle cx="12" cy="8" r="4" stroke="#5421B5" stroke-linecap="round"/>
<path fill-rule="evenodd" clip-rule="evenodd" d="M12.3345 15.505C12.1358 15.499 11.9365 15.4984 11.7369 15.5031C9.85261 15.5477 8.031 16.0683 6.56848 16.9956C5.10578 17.9229 4.07015 19.2159 3.67544 20.6856C3.60382 20.9523 3.76195 21.2266 4.02864 21.2982C4.29534 21.3698 4.56959 21.2117 4.64122 20.945C4.95903 19.7616 5.8108 18.66 7.10393 17.8401C8.30459 17.0789 9.80473 16.6136 11.3917 16.5183C11.6231 16.1116 11.9469 15.7643 12.3345 15.505Z" fill="#5421B5"/>
<path d="M18 14L18 22" stroke="#5421B5" stroke-linecap="round"/>
<path d="M22 18L14 18" stroke="#5421B5" stroke-linecap="round"/>
</svg>
